<?xml version="1.0" encoding="utf-8"?>
<!-- Generator: Adobe Illustrator 22.1.0, SVG Export Plug-In . SVG Version: 6.00 Build 0)  -->
<svg version="1.1" id="Layer_1" xmlns="http://www.w3.org/2000/svg" xmlns:xlink="http://www.w3.org/1999/xlink" x="0px" y="0px"
	 viewBox="0 0 1000 800" style="enable-background:new 0 0 1000 800;" xml:space="preserve">
<style type="text/css">
	.st0{fill:#1B75BC;}
	.st1{fill:#21C2E5;}
	.st2{fill:#1A1A1A;}
	.st3{fill:#5AA044;}
	.st4{fill:#6D6E71;}
</style>
<g>
	<g>
		<g>
			<g>
				<g>
					<path class="st0" d="M403.2,362.4c3,2.9,6.5,5.3,10.2,7.3c3.7,2,7.7,3.7,11.8,5c8.2,2.7,16.8,4.1,25.6,4.6
						c17.5,0.8,35-2.5,51.3-8.3c2-0.7,4.1-1.5,6.1-2.3l5.8-2.3c1.8-0.8,3.6-1.5,5.5-2.2l2.8-1.1l2.8-1c3.7-1.4,7.4-2.4,11.2-3.6
						c1.9-0.5,3.8-1,5.7-1.4l2.8-0.7l2.9-0.6c7.6-1.4,15.3-2.1,23.1-1.6c3.9,0.3,7.7,0.9,11.6,1.9c1.9,0.5,3.8,1.1,5.7,1.9
						c1.9,0.7,3.7,1.6,5.5,2.7c-2.2-3.5-5.5-6.4-9-8.8c-3.6-2.4-7.6-4.2-11.8-5.7c-8.4-2.8-17.4-3.7-26.2-3.4
						c-8.9,0.3-17.6,1.9-26,4.3c-2.1,0.5-4.2,1.2-6.3,1.9c-2.1,0.7-4.1,1.4-6.1,2.2l-5.8,2.2l-2.8,1.1c-0.9,0.3-1.9,0.6-2.8,1
						c-14.9,5.3-30.2,9.3-45.9,10.8c-7.8,0.8-15.7,1-23.7,0.5C419.2,366.2,411.1,365.1,403.2,362.4z"/>
				</g>
				<g>
					<path class="st1" d="M398.1,347.6c3.7,2.2,7.7,3.6,11.8,4.8c4,1.2,8.2,2,12.3,2.7c8.3,1.2,16.7,1.5,25,1
						c16.7-0.9,33.2-4.7,49.2-10.3c8.1-2.9,15.5-6,23.4-8c7.8-2.1,15.8-3.4,23.8-3.9c8-0.4,16.1,0.1,24.1,1.9
						c7.9,1.8,15.8,4.6,23.1,9.3c-3.2-3.2-6.8-5.7-10.5-7.9c-3.8-2.2-7.7-3.9-11.7-5.4c-8.1-2.8-16.5-4.3-24.9-4.5
						c-8.4-0.3-16.9,0.7-25.2,2.6c-2.1,0.5-4.1,1-6.2,1.6c-2,0.6-4.1,1.2-6.1,1.9l-11.8,4.2c-15.6,5.4-31.5,9.6-47.6,11.8
						c-4,0.6-8.1,0.9-12.1,1.2c-4.1,0.3-8.1,0.4-12.2,0.3c-4.1,0-8.1-0.3-12.2-0.8c-2-0.2-4.1-0.6-6.1-1
						C402.1,348.7,400.1,348.2,398.1,347.6z"/>
				</g>
				<path class="st2" d="M589.4,366.3C589.4,366.3,589.4,366.3,589.4,366.3c-3.4-0.8-6.8-1.4-10.1-1.8c-8.6-0.8-17.2-0.3-25.6,1
					l-3.2,0.5l-3.2,0.6c-2.1,0.4-4.2,0.9-6.3,1.4c-4.2,1.1-8.4,2.1-12.5,3.5l-3.1,1l-3.1,1.1c-2.1,0.7-4.1,1.5-6.2,2.2l-6.5,2.3
					c-2.2,0.8-4.5,1.6-6.8,2.3c-18.2,5.7-37.8,8.8-57.1,7.4c-9.6-0.7-19.2-2.5-28.2-5.6c-3.5-1.2-6.9-2.7-10.1-4.3
					c15.9,35.2,51.4,59.7,92.6,59.7c25.6,0,48.9-9.4,66.8-25c4.4-4.3,8.5-9,12.3-14.1c6.4-9.5,11.8-19,13-30.9
					C591.4,367.1,590.5,366.6,589.4,366.3z"/>
			</g>
		</g>
		<path class="st3" d="M615.2,336.2c0-63.5-51.7-115.2-115.2-115.2s-115.2,51.7-115.2,115.2c0,0.1,0,0.2,0,0.3h0
			c0,63.3,51.7,114.8,115.2,114.8c28.3,0,54.2-10.2,74.2-27.1l0,0c2.7-2.4,5.5-4.7,7.9-7.3c20.4-20.7,33-49.1,33-80.4h0
			C615.2,336.5,615.2,336.4,615.2,336.2z M611.6,346.2c0,0.3-0.1,0.6-0.1,1c0-0.4,0.1-0.8,0.1-1.2c0-0.6,0-0.9,0-0.9
			c0-52.5-38.8-96.1-89.2-103.8l-1.5-0.2c-4.7-0.6-9.5-1-14.4-1c-23.9,0-47.2,8.2-65.8,23.1c-18.3,14.7-31.3,35.3-36.6,58l-0.8,3.2
			c0,0,16.3-7.5,38.4-11.6c27.1-5.1,80.5-11,80.5-60.4c-48.7,0.2-82.5,39.9-82.5,39.9c15-22.5,33.6-34.4,49.4-40.7
			c22-8.8,46.8-6.9,67.4,4.8c30.9,17.5,51.8,50.7,51.8,88.7c0,0.3,1,18.2-7.5,38.5c-5.7,15.5-19.1,29-19.9,30
			c-15.7,16.5-36.4,28.1-59.6,32.6c-0.1,0-0.2,0-0.3,0.1c-0.8,0.2-1.7,0.3-2.5,0.4c-0.2,0-0.4,0.1-0.6,0.1c-0.8,0.1-1.5,0.2-2.3,0.3
			c-0.2,0-0.5,0.1-0.7,0.1c-0.7,0.1-1.4,0.2-2.1,0.3c-0.3,0-0.6,0.1-0.9,0.1c-0.7,0.1-1.3,0.1-2,0.2c-0.3,0-0.6,0.1-1,0.1
			c-0.7,0.1-1.3,0.1-2,0.1c-0.3,0-0.7,0-1,0.1c-0.7,0-1.4,0.1-2.1,0.1c-0.3,0-0.6,0-0.9,0c-1,0-2,0-3,0
			c-63.2,0-114.4-52.7-111.9-116.4c2.3-58.1,49.4-105.2,107.5-107.5C559.3,221.8,612,273,612,336.2c0,3.3-0.1,6.5-0.4,9.7
			C611.6,346,611.6,346.1,611.6,346.2z"/>
	</g>
	<g>
		<path class="st2" d="M157.6,538.5H150v-55.1h7.6v25.1h29.3v-25.1h7.6v55.1h-7.6V512h-29.3V538.5z"/>
		<path class="st2" d="M215.5,483.4h7.6v35.8c0,2.4,0.4,4.6,1.3,6.6c0.8,2.1,2,3.9,3.6,5.4c1.6,1.6,3.5,2.8,5.7,3.7
			c2.2,0.9,4.7,1.4,7.4,1.4c1.6,0,3.1-0.2,4.6-0.7c1.5-0.5,2.8-1.1,4.1-2c1.3-0.8,2.4-1.8,3.4-2.9c1-1.1,1.9-2.3,2.6-3.6
			c0.7-1.3,1.3-2.6,1.7-3.9c0.4-1.4,0.6-2.7,0.6-4v-35.7h4.1v35.1c0,2.7-0.5,5.4-1.4,7.9c-1,2.5-2.4,4.8-4.4,6.8
			c-2,2-4.5,3.5-7.5,4.7c-3,1.2-6.6,1.8-10.8,1.8c-3.7,0-6.9-0.5-9.7-1.6c-2.8-1.1-5.2-2.6-7.1-4.5c-1.9-1.9-3.4-4.1-4.3-6.6
			c-1-2.5-1.5-5.2-1.5-8.1V483.4z"/>
		<path class="st2" d="M301.2,482.1l25.9,56.3h-7.9l-8.4-18.4h-24.4l-8.6,18.4h-4.5l26.3-56.3H301.2z M288.1,516.5h21l-10.6-22.4
			L288.1,516.5z"/>
		<path class="st2" d="M341.5,483.4h7.6v51.5h27.7v3.6h-35.3V483.4z"/>
		<path class="st2" d="M411.8,482.1l25.9,56.3h-7.9l-8.4-18.4H397l-8.6,18.4h-4.5l26.3-56.3H411.8z M398.7,516.5h21l-10.6-22.4
			L398.7,516.5z"/>
		<path class="st2" d="M451.2,483.4h4.6l37.1,41.4v-41.4h4.1v56.2h-2.1l-39.5-45.3v44.2h-4.2V483.4z"/>
		<path class="st2" d="M517.9,483.4h7.6v55.1h-7.6V483.4z"/>
		<path class="st3" d="M603.7,483.4v3.6h-26.9v19.7h19.4v3.6h-19.4v28.2h-7.6v-55.1H603.7z"/>
		<path class="st3" d="M634.3,482.1l25.9,56.3h-7.9l-8.4-18.4h-24.4l-8.6,18.4h-4.5l26.3-56.3H634.3z M621.2,516.5h21l-10.6-22.4
			L621.2,516.5z"/>
		<path class="st3" d="M674.5,483.4h18.3c3.2,0,5.9,0.4,8.3,1.1c2.4,0.7,4.4,1.7,6,3c1.6,1.3,2.8,2.8,3.6,4.5
			c0.8,1.8,1.2,3.7,1.2,5.8c0,1.7-0.3,3.4-0.9,4.9c-0.6,1.5-1.5,2.9-2.7,4.1c-1.2,1.2-2.6,2.2-4.2,3.1s-3.5,1.5-5.5,2l20.1,26.7
			h-9.4l-19.1-25.9h-8v25.9h-7.6V483.4z M682.1,509.8h6.2c2.2,0,4.2-0.3,6.1-0.8c1.9-0.6,3.5-1.3,4.8-2.3c1.4-1,2.4-2.2,3.2-3.7
			c0.8-1.4,1.1-3.1,1.1-4.9c0-1.7-0.3-3.2-0.9-4.6c-0.6-1.4-1.5-2.6-2.6-3.6c-1.1-1-2.4-1.8-3.9-2.3c-1.5-0.6-3.2-0.8-5-0.8h-9
			V509.8z"/>
		<path class="st3" d="M732,483.4h8.7l21.7,42.9c3-5.5,5.9-10.9,8.7-16.2c1.2-2.2,2.4-4.6,3.7-7s2.5-4.8,3.8-7.1
			c1.2-2.3,2.4-4.6,3.5-6.8c1.1-2.2,2.1-4.1,3-5.9h7.7v55.1h-7.6v-45.1L762,538.5h-1.7l-24.2-47.1v47.1H732V483.4z"/>
		<path class="st3" d="M831.7,536.3c1.5,0,2.9-0.2,4.3-0.6c1.4-0.4,2.7-0.9,3.8-1.7c1.1-0.7,2-1.6,2.7-2.7c0.7-1.1,1-2.3,1-3.7
			c0-1.5-0.4-2.9-1.2-4.2c-0.8-1.2-1.9-2.4-3.2-3.5c-1.3-1.1-2.9-2.1-4.6-3c-1.7-1-3.5-1.9-5.3-2.8c-1.9-1-3.9-2-5.8-3.1
			c-1.9-1.1-3.6-2.3-5.1-3.6c-1.5-1.3-2.7-2.9-3.7-4.6c-0.9-1.7-1.4-3.7-1.4-6c0-2.1,0.4-4.1,1.1-5.9c0.7-1.8,1.8-3.4,3.3-4.7
			c1.5-1.3,3.2-2.3,5.4-3.1c2.1-0.7,4.6-1.1,7.3-1.1c2.5,0,4.7,0.3,6.6,0.8c2,0.6,3.7,1.4,5.2,2.5c1.5,1.1,2.7,2.4,3.8,4
			c1.1,1.6,1.9,3.5,2.6,5.6l-3.3,1.5c-0.5-1.6-1.2-3.1-2.1-4.4c-0.9-1.3-1.9-2.5-3.2-3.4c-1.2-1-2.7-1.7-4.4-2.2
			c-1.7-0.5-3.5-0.8-5.6-0.8c-1.9,0-3.5,0.2-4.9,0.7c-1.4,0.5-2.6,1.1-3.5,1.9c-0.9,0.8-1.6,1.7-2.1,2.7c-0.5,1-0.7,2-0.7,3
			c0,1.2,0.4,2.4,1.2,3.6c0.8,1.1,1.9,2.2,3.2,3.2c1.3,1,2.9,2,4.6,3c1.7,1,3.5,1.9,5.3,2.8c2,1,4,2.1,6,3.3c2,1.1,3.8,2.4,5.4,3.8
			c1.6,1.4,2.9,2.9,3.9,4.6s1.5,3.6,1.5,5.6c0,2.2-0.4,4.2-1.2,6.2c-0.8,1.9-2,3.6-3.6,5c-1.6,1.4-3.6,2.6-5.9,3.4
			c-2.4,0.8-5.1,1.2-8.2,1.2c-2.5,0-4.7-0.3-6.7-0.9c-2-0.6-3.8-1.4-5.3-2.6c-1.5-1.1-2.9-2.5-3.9-4.1c-1.1-1.6-2-3.5-2.8-5.5
			l3.5-1.5c0.6,1.7,1.3,3.3,2.3,4.7c1,1.4,2.2,2.5,3.6,3.5c1.4,1,2.9,1.7,4.6,2.2C828,536,829.8,536.3,831.7,536.3z"/>
	</g>
</g>
<g>
	<path class="st4" d="M258.8,561.3h7.3c3.7,0,6.6,2.4,6.6,5.7c0,3.4-2.9,5.7-6.6,5.7h-5.2v6.4h-2V561.3z M265.7,570.8
		c2.9,0,4.9-1.4,4.9-3.8s-2-3.8-4.9-3.8h-4.9v7.6H265.7z"/>
	<path class="st4" d="M284.2,571.7v-10.5h2v10.5c0,3.4,2.3,5.9,5.5,5.9c3.2,0,5.5-2.5,5.5-5.9v-10.5h2v10.5c0,4.5-3.1,7.7-7.5,7.7
		C287.3,579.5,284.2,576.3,284.2,571.7z"/>
	<path class="st4" d="M320.8,572.6l4.6,6.6h-2.3l-4.5-6.4h-4.7v6.4h-2v-17.9h7.3c3.7,0,6.6,2.4,6.6,5.7
		C325.7,569.8,323.7,572,320.8,572.6z M313.9,570.8h4.9c2.9,0,4.9-1.4,4.9-3.8s-2-3.8-4.9-3.8h-4.9V570.8z"/>
	<path class="st4" d="M339.2,563.2v5.9h9.7v1.9h-9.7v6.2H350v1.9h-12.9v-17.9H350v1.9H339.2z"/>
	<path class="st4" d="M376.7,572.4c0-1.5,1.2-2.7,2.7-2.7c1.5,0,2.7,1.2,2.7,2.7c0,1.5-1.2,2.7-2.7,2.7
		C377.9,575.1,376.7,573.9,376.7,572.4z"/>
	<rect x="443.1" y="556.8" class="st4" width="10.5" height="1.8"/>
	<path class="st4" d="M428.1,561.3v17.9h-2V571h-10.6v8.2h-2v-17.9h2v7.8H426v-7.8H428.1z"/>
	<path class="st4" d="M453.3,575.1h-10l-1.8,4.1h-2.2l7.9-17.9h2.2l7.9,17.9h-2.2L453.3,575.1z M452.5,573.2l-4.1-9.4l-4.2,9.4
		H452.5z"/>
	<path class="st4" d="M469,561.3h2l11.1,14.6v-14.6h2v17.9h-2L471,564.6v14.6h-2V561.3z"/>
	<path class="st4" d="M509.8,575.1h-10l-1.8,4.1h-2.2l7.9-17.9h2.2l7.9,17.9h-2.2L509.8,575.1z M509,573.2l-4.1-9.4l-4.2,9.4H509z"
		/>
	<path class="st4" d="M539.9,572.4c0-1.5,1.2-2.7,2.7-2.7c1.5,0,2.7,1.2,2.7,2.7c0,1.5-1.2,2.7-2.7,2.7
		C541.1,575.1,539.9,573.9,539.9,572.4z"/>
	<path class="st4" d="M572,570.2c0-5,4.2-9.3,9.2-9.3c5,0,9.2,4.2,9.2,9.3c0,5-4.2,9.3-9.2,9.3C576.2,579.5,572,575.2,572,570.2z
		 M588.2,570.2c0-4-3.2-7.4-7.1-7.4c-3.9,0-7.1,3.4-7.1,7.4c0,4,3.3,7.4,7.1,7.4C585,577.6,588.2,574.2,588.2,570.2z"/>
	<path class="st4" d="M611.1,572.6l4.6,6.6h-2.3l-4.5-6.4h-4.7v6.4h-2v-17.9h7.3c3.7,0,6.6,2.4,6.6,5.7
		C616,569.8,613.9,572,611.1,572.6z M604.1,570.8h4.9c2.9,0,4.9-1.4,4.9-3.8s-2-3.8-4.9-3.8h-4.9V570.8z"/>
	<path class="st4" d="M635.7,569.7h7.2v7c-1.7,1.7-4.5,2.7-7,2.7c-5,0-9.2-4.3-9.2-9.3c0-5,4.2-9.3,9.2-9.3c2.5,0,5.3,1,7,2.7
		l-1.4,1.4c-1.3-1.4-3.6-2.3-5.6-2.3c-3.9,0-7.1,3.4-7.1,7.4c0,4,3.3,7.4,7.1,7.4c1.7,0,3.6-0.7,4.9-1.7v-4.3h-5.1V569.7z"/>
	<path class="st4" d="M668,575.1h-10l-1.8,4.1H654l7.9-17.9h2.2l7.9,17.9h-2.2L668,575.1z M667.2,573.2l-4.1-9.4l-4.2,9.4H667.2z"/>
	<path class="st4" d="M683.7,561.3h2l11.1,14.6v-14.6h2v17.9h-2l-11.1-14.6v14.6h-2V561.3z"/>
	<path class="st4" d="M711.7,561.3h2v17.9h-2V561.3z"/>
	<path class="st4" d="M725.5,570.2c0-5,4.2-9.3,9.2-9.3c2.5,0,4.8,1,6.4,2.7l-1.4,1.4c-1.3-1.4-3.1-2.3-5.1-2.3
		c-3.9,0-7.1,3.4-7.1,7.4c0,4,3.3,7.4,7.1,7.4c2,0,3.8-0.9,5.1-2.3l1.4,1.4c-1.7,1.7-4,2.7-6.4,2.7
		C729.8,579.5,725.5,575.2,725.5,570.2z"/>
</g>
</svg>
